<?xml version="1.0" encoding="UTF-8"?>
<svg version="1.1" viewBox="0 0 1000 1000" xmlns="http://www.w3.org/2000/svg">
 <g transform="translate(0 -52.362)">
  <circle cx="500" cy="552.36" r="443.92" fill="#409fe2"/>
  <path d="m635.07 294.2c-9.3742-0.12974-19.456 2.3464-29.727 6.7344-18.259 7.8009-38.045 21.787-58.855 40.791-19.545 17.848-39.959 40.211-60.305 66.117-26.357-19.756-51.863-36.072-75.363-48.254-25.021-12.971-47.755-21.36-67.41-24.17-19.655-2.8094-37.16 0.066-48.723 11.629s-14.438 29.066-11.629 48.723c2.0773 14.534 7.2252 30.758 15 48.338 4.2847-3.7856 9.5159-6.5206 15.305-7.7207-7.1021-16.261-11.653-30.891-13.389-43.035-2.3866-16.697 0.38329-27.807 6.7988-34.223 4.8116-4.8116 12.263-7.5669 22.732-7.6387 3.4897-0.024 7.3138 0.24713 11.488 0.84375 16.697 2.3866 38.056 10.034 61.965 22.428 22.418 11.622 47.113 27.417 72.801 46.662-11.961 15.976-23.834 33.145-35.443 51.332-31.493 9.9611-60.832 21.147-87.256 33.072-3.1192-4.5472-6.1162-9.0479-8.9922-13.498-3.9922 4.1179-9.0198 7.2124-14.658 8.8594 2.5489 3.9595 5.179 7.9489 7.9102 11.973-18.858 9.1297-35.993 18.61-51.049 28.236-23.743 15.183-42.373 30.679-54.635 46.297-12.261 15.618-18.528 32.212-14.295 48.008 4.2324 15.796 17.959 27.039 36.385 34.434 18.426 7.3949 42.309 11.496 70.461 12.773 6.1156 0.27746 12.469 0.39169 18.973 0.39649-1.6787 6.2835-3.2105 12.452-4.5254 18.432-6.0528 27.525-8.272 51.656-5.8984 71.369s9.6802 35.881 23.842 44.057c14.162 8.1764 31.818 6.4181 50.076-1.3828 6.812-2.9104 13.836-6.6824 21.047-11.254-4.5042-3.6174-8.045-8.3714-10.207-13.816-6.1858 3.8691-12.069 7.0121-17.553 9.3555-15.511 6.6269-26.959 6.8334-34.816 2.2969-7.8575-4.5364-13.402-14.552-15.418-31.297-2.0164-16.746-0.16265-39.359 5.6211-65.66 1.5828-7.1978 3.4814-14.694 5.6367-22.412 34.747-1.2171 73.927-5.9805 115.49-14.383 11.992 10.583 23.946 20.544 35.773 29.844-15.445 19.655-30.845 37.099-45.713 51.916 4.8593 3.1245 8.8703 7.4586 11.584 12.584 15.646-15.529 31.699-33.684 47.717-54.08 26.357 19.756 51.861 36.072 75.361 48.254 25.021 12.971 47.753 21.36 67.408 24.17 19.655 2.8094 37.164-0.0658 48.727-11.629 11.563-11.563 14.438-29.068 11.629-48.725-2.8094-19.655-11.199-42.389-24.17-67.408-8.2248-15.866-18.327-32.645-30.094-49.98 18.858-9.1297 35.997-18.61 51.053-28.236 23.743-15.183 42.375-30.675 54.637-46.293 12.261-15.618 18.522-32.22 14.289-48.016-4.2326-15.796-17.953-27.035-36.379-34.43-2.2876-0.91805-4.6597-1.7861-7.1133-2.6035 0.014 0.38649 0.0312 0.77252 0.0312 1.1621 1e-4 5.6235-1.4206 10.928-3.9023 15.592 1.5914 0.55182 3.1445 1.1172 4.6191 1.709 15.654 6.2818 23.886 14.234 26.236 22.998 2.3483 8.7638-0.80717 19.766-11.223 33.033-10.415 13.267-27.714 27.942-50.4 42.451-15.04 9.6178-32.48 19.178-51.809 28.418-11.072-15.403-23.359-31.148-36.797-47.031 15.191-32.233 27.284-63.247 36.012-91.785 0.69238-6e-3 1.4119-0.0312 2.0996-0.0352 6.5079-0.0392 12.773 0.0816 18.846 0.32227-0.32002-1.8477-0.52152-3.7345-0.52148-5.6699-8e-5 -3.9976 0.74561-7.821 2.0488-11.383-5.6871-0.23371-11.55-0.34321-17.562-0.34765 1.679-6.2844 3.2103-12.449 4.5254-18.43 6.0528-27.525 8.2681-51.658 5.8945-71.371s-9.6763-35.877-23.838-44.053c-6.1958-3.5772-13.059-5.2546-20.35-5.3555l-6e-3 -4e-3zm-0.60938 17.064 2e-3 2e-3c4.8514 0.0288 8.9765 1.1051 12.414 3.0898 7.8575 4.5365 13.4 14.553 15.416 31.299 2.0164 16.745 0.16478 39.349-5.6192 65.65-1.5828 7.1978-3.4833 14.696-5.6387 22.414-34.747 1.217-73.927 5.9805-115.49 14.383-11.993-10.583-23.948-20.54-35.775-29.84 19.831-25.236 39.6-46.892 58.246-63.92 19.886-18.16 38.534-31.064 54.045-37.691 8.7248-3.7276 16.165-5.4235 22.402-5.3867zm83.312 107.29a26.585 26.585 0 0 0 -26.584 26.586 26.585 26.585 0 0 0 26.584 26.584 26.585 26.585 0 0 0 26.586 -26.584 26.585 26.585 0 0 0 -26.586 -26.586zm-228.43 13.289c8.3644 6.5785 16.807 13.511 25.291 20.768-11.432 2.5976-22.992 5.4258-34.676 8.5566-4.766 1.277-9.495 2.587-14.184 3.9219 7.7931-11.594 15.67-22.694 23.568-33.246zm-169.25 10.688a26.585 26.585 0 0 0 -26.586 26.586 26.585 26.585 0 0 0 26.586 26.584 26.585 26.585 0 0 0 26.584 -26.584 26.585 26.585 0 0 0 -26.584 -26.586zm325.75 8.5176c-7.661 24.057-17.801 50.046-30.219 77.07-12.067-13.645-24.903-27.329-38.482-40.908-8.5541-8.5541-17.149-16.785-25.75-24.75 33.824-6.295 65.761-10.077 94.451-11.412zm-115.26 15.559c11.506 10.349 23.034 21.241 34.48 32.688 15.166 15.166 29.375 30.47 42.584 45.68-8.8217 18.11-18.585 36.574-29.309 55.148-5.8113 10.065-11.744 19.849-17.744 29.387-10.767 3.3272-21.751 6.5228-32.979 9.5312-15.637 4.1899-31.067 7.8627-46.205 11.072-11.506-10.349-23.034-21.241-34.48-32.688-15.166-15.166-29.375-30.472-42.584-45.682 8.8224-18.112 18.589-36.574 29.312-55.148 5.8115-10.066 11.74-19.849 17.74-29.387 10.766-3.3268 21.752-6.5251 32.979-9.5332 15.638-4.1901 31.065-7.8588 46.205-11.068zm-104.27 28.758h2e-3c-2.5038 4.1846-4.9932 8.4093-7.4609 12.684-9.6022 16.631-18.46 33.173-26.586 49.477-10.497-12.654-20.239-25.182-29.156-37.451 19.515-8.6857 40.696-16.999 63.201-24.709zm79.668 23.115a39.879 39.879 0 0 0 -39.879 39.879 39.879 39.879 0 0 0 39.879 39.879 39.879 39.879 0 0 0 39.879 -39.879 39.879 39.879 0 0 0 -39.879 -39.879zm-158.7 8.9004c11.071 15.401 23.361 31.148 36.797 47.031-15.191 32.233-27.28 63.245-36.008 91.783-8.0137 0.0845-15.749-0.0197-23.111-0.35352-26.903-1.2206-49.221-5.2807-64.875-11.562-15.654-6.2818-23.888-14.234-26.238-22.998-2.3483-8.7638 0.80905-19.766 11.225-33.033 10.416-13.267 27.714-27.938 50.4-42.447 15.041-9.6181 32.48-19.178 51.811-28.42zm272.43 31.812c10.497 12.654 20.239 25.179 29.156 37.447-19.515 8.6847-40.692 17-63.195 24.709 2.503-4.1834 4.9921-8.4105 7.459-12.684 9.6017-16.631 18.456-33.169 26.58-49.473zm-223.35 29.406c12.068 13.646 24.903 27.329 38.482 40.91 8.5532 8.5532 17.149 16.784 25.75 24.748-33.826 6.2959-65.759 10.077-94.451 11.412 7.6611-24.055 17.801-50.046 30.219-77.07zm262.56 22.283h2e-3c12.121 17.669 22.443 34.669 30.66 50.52 12.394 23.908 20.038 45.265 22.424 61.963 2.3866 16.697-0.38126 27.803-6.7969 34.219-6.4155 6.4155-17.524 9.1854-34.221 6.7988s-38.056-10.028-61.965-22.422c-22.418-11.622-47.115-27.423-72.803-46.668 11.961-15.976 23.84-33.145 35.449-51.332 31.493-9.9614 60.826-21.155 87.25-33.078zm-112.71 40.746c-7.7938 11.594-15.669 22.695-23.568 33.248-8.3659-6.5799-16.809-13.51-25.295-20.768 11.433-2.5978 22.994-5.4274 34.68-8.5586 4.767-1.2773 9.4942-2.5867 14.184-3.9219zm-97.68 100.28a26.585 26.585 0 0 0 -26.584 26.586 26.585 26.585 0 0 0 26.584 26.584 26.585 26.585 0 0 0 26.586 -26.584 26.585 26.585 0 0 0 -26.586 -26.586z" color="#000000" color-rendering="auto" fill-opacity=".13333" image-rendering="auto" shape-rendering="auto" solid-color="#000000" style="block-progression:tb;isolation:auto;mix-blend-mode:normal;text-decoration-color:#000000;text-decoration-line:none;text-decoration-style:solid;text-indent:0;text-transform:none;white-space:normal"/>
  <path transform="translate(0 52.362)" d="m629.07 235.84c-9.3742-0.12974-19.456 2.3464-29.727 6.7344-18.259 7.8009-38.045 21.787-58.855 40.791-19.545 17.848-39.959 40.211-60.305 66.117-26.357-19.756-51.863-36.072-75.363-48.254-25.021-12.971-47.755-21.36-67.41-24.17-19.655-2.8094-37.16 0.06596-48.723 11.629-11.563 11.563-14.438 29.066-11.629 48.723 2.0773 14.534 7.2252 30.758 15 48.338 4.2847-3.7856 9.5159-6.5206 15.305-7.7207-7.1021-16.261-11.653-30.891-13.389-43.035-2.3866-16.697 0.38329-27.807 6.7988-34.223 4.8116-4.8116 12.263-7.5669 22.732-7.6387 3.4897-0.024 7.3138 0.24713 11.488 0.84375 16.697 2.3866 38.056 10.034 61.965 22.428 22.418 11.622 47.113 27.417 72.801 46.662-11.961 15.976-23.834 33.145-35.443 51.332-31.493 9.9611-60.832 21.147-87.256 33.072-3.1192-4.5472-6.1162-9.0479-8.9922-13.498-3.9922 4.1179-9.0198 7.2124-14.658 8.8594 2.5489 3.9595 5.179 7.9489 7.9102 11.973-18.858 9.1297-35.993 18.61-51.049 28.236-23.743 15.183-42.373 30.679-54.635 46.297-12.261 15.618-18.528 32.212-14.295 48.008 4.2324 15.796 17.959 27.039 36.385 34.434 18.426 7.3949 42.309 11.496 70.461 12.773 6.1156 0.27746 12.469 0.39169 18.973 0.39649-1.6787 6.2835-3.2105 12.452-4.5254 18.432-6.0528 27.525-8.272 51.656-5.8984 71.369s9.6802 35.881 23.842 44.057c14.162 8.1764 31.818 6.4181 50.076-1.3828 6.812-2.9104 13.836-6.6824 21.047-11.254-4.5042-3.6174-8.045-8.3714-10.207-13.816-6.1858 3.8691-12.069 7.0121-17.553 9.3555-15.511 6.6269-26.959 6.8334-34.816 2.2969-7.8575-4.5364-13.402-14.552-15.418-31.297-2.0164-16.746-0.16265-39.359 5.6211-65.66 1.5828-7.1978 3.4814-14.694 5.6367-22.412 34.747-1.2171 73.927-5.9805 115.49-14.383 11.992 10.583 23.946 20.544 35.773 29.844-15.445 19.655-30.845 37.099-45.713 51.916 4.8593 3.1245 8.8703 7.4586 11.584 12.584 15.646-15.529 31.699-33.684 47.717-54.08 26.357 19.756 51.861 36.072 75.361 48.254 25.021 12.971 47.753 21.36 67.408 24.17 19.655 2.8094 37.164-0.06577 48.727-11.629 11.563-11.563 14.438-29.068 11.629-48.725-2.8094-19.655-11.199-42.389-24.17-67.408-8.2248-15.866-18.327-32.645-30.094-49.98 18.858-9.1297 35.997-18.61 51.053-28.236 23.743-15.183 42.375-30.675 54.637-46.293 12.261-15.618 18.522-32.22 14.289-48.016-4.2326-15.796-17.953-27.035-36.379-34.43-2.2876-0.91805-4.6597-1.7861-7.1133-2.6035 0.014 0.38649 0.03125 0.77252 0.03125 1.1621 1e-4 5.6235-1.4206 10.928-3.9023 15.592 1.5914 0.55182 3.1445 1.1172 4.6191 1.709 15.654 6.2818 23.886 14.234 26.236 22.998 2.3483 8.7638-0.80717 19.766-11.223 33.033-10.415 13.267-27.714 27.942-50.4 42.451-15.04 9.6178-32.48 19.178-51.809 28.418-11.072-15.403-23.359-31.148-36.797-47.031 15.191-32.233 27.284-63.247 36.012-91.785 0.69238-6e-3 1.4119-0.03116 2.0996-0.03516 6.5079-0.0392 12.773 0.0816 18.846 0.32227-0.32002-1.8477-0.52152-3.7345-0.52148-5.6699-8e-5 -3.9976 0.74561-7.821 2.0488-11.383-5.6871-0.23371-11.55-0.34321-17.562-0.34765 1.679-6.2844 3.2103-12.449 4.5254-18.43 6.0528-27.525 8.2681-51.658 5.8945-71.371s-9.6763-35.877-23.838-44.053c-6.1958-3.5772-13.059-5.2546-20.35-5.3555l-0.00586-0.0039zm-0.60938 17.064l0.00196 0.00195c4.8514 0.0288 8.9765 1.1051 12.414 3.0898 7.8575 4.5365 13.4 14.553 15.416 31.299 2.0164 16.745 0.16478 39.349-5.6192 65.65-1.5828 7.1978-3.4833 14.696-5.6387 22.414-34.747 1.217-73.927 5.9805-115.49 14.383-11.993-10.583-23.948-20.54-35.775-29.84 19.831-25.236 39.6-46.892 58.246-63.92 19.886-18.16 38.534-31.064 54.045-37.691 8.7248-3.7276 16.165-5.4235 22.402-5.3867zm83.312 107.29a26.585 26.585 0 0 0 -26.584 26.586 26.585 26.585 0 0 0 26.584 26.584 26.585 26.585 0 0 0 26.586 -26.584 26.585 26.585 0 0 0 -26.586 -26.586zm-228.43 13.289c8.3644 6.5785 16.807 13.511 25.291 20.768-11.432 2.5976-22.992 5.4258-34.676 8.5566-4.766 1.277-9.495 2.587-14.184 3.9219 7.7931-11.594 15.67-22.694 23.568-33.246zm-169.25 10.688a26.585 26.585 0 0 0 -26.586 26.586 26.585 26.585 0 0 0 26.586 26.584 26.585 26.585 0 0 0 26.584 -26.584 26.585 26.585 0 0 0 -26.584 -26.586zm325.75 8.5176c-7.661 24.057-17.801 50.046-30.219 77.07-12.067-13.645-24.903-27.329-38.482-40.908-8.5541-8.5541-17.149-16.785-25.75-24.75 33.824-6.295 65.761-10.077 94.451-11.412zm-115.26 15.559c11.506 10.349 23.034 21.241 34.48 32.688 15.166 15.166 29.375 30.47 42.584 45.68-8.8217 18.11-18.585 36.574-29.309 55.148-5.8113 10.065-11.744 19.849-17.744 29.387-10.767 3.3272-21.751 6.5228-32.979 9.5312-15.637 4.1899-31.067 7.8627-46.205 11.072-11.506-10.349-23.034-21.241-34.48-32.688-15.166-15.166-29.375-30.472-42.584-45.682 8.8224-18.112 18.589-36.574 29.312-55.148 5.8115-10.066 11.74-19.849 17.74-29.387 10.766-3.3268 21.752-6.5251 32.979-9.5332 15.638-4.1901 31.065-7.8588 46.205-11.068zm-104.27 28.758h0.00196c-2.5038 4.1846-4.9932 8.4093-7.4609 12.684-9.6022 16.631-18.46 33.173-26.586 49.477-10.497-12.654-20.239-25.182-29.156-37.451 19.515-8.6857 40.696-16.999 63.201-24.709zm79.668 23.115a39.879 39.879 0 0 0 -39.879 39.879 39.879 39.879 0 0 0 39.879 39.879 39.879 39.879 0 0 0 39.879 -39.879 39.879 39.879 0 0 0 -39.879 -39.879zm-158.7 8.9004c11.071 15.401 23.361 31.148 36.797 47.031-15.191 32.233-27.28 63.245-36.008 91.783-8.0137 0.0845-15.749-0.0197-23.111-0.35352-26.903-1.2206-49.221-5.2807-64.875-11.562-15.654-6.2818-23.888-14.234-26.238-22.998-2.3483-8.7638 0.80905-19.766 11.225-33.033 10.416-13.267 27.714-27.938 50.4-42.447 15.041-9.6181 32.48-19.178 51.811-28.42zm272.43 31.812c10.497 12.654 20.239 25.179 29.156 37.447-19.515 8.6847-40.692 17-63.195 24.709 2.503-4.1834 4.9921-8.4105 7.459-12.684 9.6017-16.631 18.456-33.169 26.58-49.473zm-223.35 29.406c12.068 13.646 24.903 27.329 38.482 40.91 8.5532 8.5532 17.149 16.784 25.75 24.748-33.826 6.2959-65.759 10.077-94.451 11.412 7.6611-24.055 17.801-50.046 30.219-77.07zm262.56 22.283h0.00196c12.121 17.669 22.443 34.669 30.66 50.52 12.394 23.908 20.038 45.265 22.424 61.963 2.3866 16.697-0.38126 27.803-6.7969 34.219-6.4155 6.4155-17.524 9.1854-34.221 6.7988s-38.056-10.028-61.965-22.422c-22.418-11.622-47.115-27.423-72.803-46.668 11.961-15.976 23.84-33.145 35.449-51.332 31.493-9.9614 60.826-21.155 87.25-33.078zm-112.71 40.746c-7.7938 11.594-15.669 22.695-23.568 33.248-8.3659-6.5799-16.809-13.51-25.295-20.768 11.433-2.5978 22.994-5.4274 34.68-8.5586 4.767-1.2773 9.4942-2.5867 14.184-3.9219zm-97.68 100.28a26.585 26.585 0 0 0 -26.584 26.586 26.585 26.585 0 0 0 26.584 26.584 26.585 26.585 0 0 0 26.586 -26.584 26.585 26.585 0 0 0 -26.586 -26.586z" color="#000000" color-rendering="auto" fill="#e4ff1e" image-rendering="auto" shape-rendering="auto" solid-color="#000000" style="block-progression:tb;isolation:auto;mix-blend-mode:normal;text-decoration-color:#000000;text-decoration-line:none;text-decoration-style:solid;text-indent:0;text-transform:none;white-space:normal"/>
 </g>
</svg>
